<svg id="Layer_3" data-name="Layer 3" xmlns="http://www.w3.org/2000/svg" viewBox="0 0 166 48"><defs><style>.cls-1{fill:#fff;}</style></defs><title>logo</title><path class="cls-1" d="M24.214,20.184l-0.625-3.257a7.211,7.211,0,0,0,1.336-.086,19.643,19.643,0,0,0,2.018-.825,5.064,5.064,0,0,1,2.62-.064,4.208,4.208,0,0,1,1.069.483,3.122,3.122,0,0,0-1.545.892c-0.8,1.114-2.407,1.167-3.6.838C24.452,17.876,24.208,20.156,24.214,20.184Z" transform="translate(0 0)"/><path class="cls-1" d="M18.679,20.184L19.3,16.927a7.206,7.206,0,0,1-1.336-.086,19.637,19.637,0,0,1-2.021-.83,5.063,5.063,0,0,0-2.618-.066,4.206,4.206,0,0,0-1.069.483,3.124,3.124,0,0,1,1.548.894c0.8,1.114,2.407,1.167,3.6.838C18.44,17.876,18.685,20.156,18.679,20.184Z" transform="translate(0 0)"/><path class="cls-1" d="M13.155,2.217L13.281,2.33a6.33,6.33,0,0,0,1.187.787c0.444,0.23.926,0.448,1.427,0.691,0.518,0.25.989,0.514,1.471,0.789a15.414,15.414,0,0,1,1.374.9,12.105,12.105,0,0,1,1.218,1.023,7.382,7.382,0,0,1,.97,1.146,5.386,5.386,0,0,1,.518.928,5.364,5.364,0,0,1,.518-0.928,7.409,7.409,0,0,1,.97-1.146A12.105,12.105,0,0,1,24.154,5.5a15.464,15.464,0,0,1,1.375-.9c0.477-.279.953-0.539,1.471-0.789,0.5-.243.981-0.461,1.425-0.692a6.33,6.33,0,0,0,1.187-.787l0.127-.113c0.028-.022.086-0.081,0.127-0.12l0.067-.065C29,1.612,28.09,1.259,27.233.965a17.83,17.83,0,0,0-11.574,0c-0.855.294-1.767,0.647-2.7,1.065L13.027,2.1C13.069,2.135,13.124,2.193,13.155,2.217Z" transform="translate(0 0)"/><path class="cls-1" d="M1.39,18.387a10.99,10.99,0,0,0,1.272-.972,13.915,13.915,0,0,0,1.27-1.292c0.84-.956,1.683-2.073,2.685-3.142L7,12.586l0.418-.393,0.393-.343,0.456-.357a11.867,11.867,0,0,1,1.868-1.139,10.472,10.472,0,0,1,1.937-.722,9.118,9.118,0,0,1,1.849-.3,8.105,8.105,0,0,1,.839-0.015,7.414,7.414,0,0,1,.759.048c0.239,0.015.459,0.061,0.664,0.093,0.121,0.017.24,0.042,0.355,0.069a4.68,4.68,0,0,1,1.163.117,10.406,10.406,0,0,1,2,.766,0.486,0.486,0,0,1,.006-0.091l0.005-.072a0.392,0.392,0,0,0-.005-0.044l-0.01-.088a2.345,2.345,0,0,0-.1-0.567,3.468,3.468,0,0,0-.349-0.794A6.194,6.194,0,0,0,18.6,7.842,10.251,10.251,0,0,0,17.653,6.9C17.294,6.589,16.9,6.28,16.49,5.979s-0.855-.609-1.283-0.873c-0.445-.277-0.924-0.552-1.391-0.865A7.547,7.547,0,0,1,12.5,3.158L12.362,3c-0.061-.067-0.086-0.1-0.128-0.156-0.077-.093-0.158-0.2-0.24-0.307L11.966,2.5C7.844,4.546,3.542,7.942,1.7,13.51c-0.165.5-.348,0.993-0.546,1.48A16.2,16.2,0,0,0,.143,19.065l0.074-.034A9.292,9.292,0,0,0,1.39,18.387Z" transform="translate(0 0)"/><path class="cls-1" d="M27.689,5.1c-0.428.265-.875,0.576-1.283,0.873S25.6,6.587,25.244,6.9a10.314,10.314,0,0,0-.946.943,6.193,6.193,0,0,0-.652.915,3.475,3.475,0,0,0-.349.794,2.342,2.342,0,0,0-.1.567l-0.009.091c0,0.015,0,.026-0.005.044l0.005,0.072,0.006,0.091a10.405,10.405,0,0,1,2-.766,4.681,4.681,0,0,1,1.163-.117c0.115-.027.234-0.052,0.355-0.069,0.2-.033.428-0.077,0.664-0.093a7.421,7.421,0,0,1,.759-0.048,8.105,8.105,0,0,1,.839.015,9.112,9.112,0,0,1,1.848.3,10.472,10.472,0,0,1,1.937.722,11.857,11.857,0,0,1,1.868,1.139l0.456,0.357,0.393,0.343,0.414,0.392,0.387,0.4c1,1.069,1.846,2.186,2.685,3.142a13.916,13.916,0,0,0,1.27,1.292,11.013,11.013,0,0,0,1.273.972,9.273,9.273,0,0,0,1.173.646l0.074,0.032a16.19,16.19,0,0,0-1.015-4.075c-0.2-.487-0.381-0.98-0.546-1.48C39.352,7.939,35.048,4.547,30.922,2.5l-0.027.038c-0.081.109-.163,0.213-0.239,0.307C30.612,2.9,30.588,2.931,30.527,3l-0.141.155a7.545,7.545,0,0,1-1.308,1.082C28.613,4.552,28.135,4.827,27.689,5.1Z" transform="translate(0 0)"/><path class="cls-1" d="M36.479,37.7c5.8-7.291,6.7-13.67,6.344-17.913-0.116-.014-0.235-0.032-0.359-0.056a5.88,5.88,0,0,1-1.431-.48,9.7,9.7,0,0,1-1.513-.919,15.047,15.047,0,0,1-1.506-1.257c-0.99-.917-1.916-1.971-2.909-2.855l-0.373-.322-0.364-.3-0.415-.309-0.376-.253a9.962,9.962,0,0,0-1.62-.843,7.929,7.929,0,0,0-1.064-.351,11.246,11.246,0,0,1,2.187,4.267,8.007,8.007,0,0,1,.327,4.114A5.359,5.359,0,0,1,33,21.5c-0.238.524-.533,1.015-0.817,1.508L32.13,23.1l-0.005.009-0.011.023-0.1.207-0.1.212-0.025.052-0.006.033-0.014.063a1.661,1.661,0,0,0-.068.266,1.249,1.249,0,0,0-.035.311,2.544,2.544,0,0,0,.436,1.39,10.123,10.123,0,0,0,1.272,1.567l0.8,0.827L34.5,28.3,34.7,28.525c0.066,0.078.125,0.139,0.2,0.23l0.219,0.287a8.513,8.513,0,0,1,1.183,2.408,10.489,10.489,0,0,1,.441,2.486,13.661,13.661,0,0,1-.047,2.3C36.636,36.757,36.564,37.239,36.479,37.7Z" transform="translate(0 0)"/><path class="cls-1" d="M6.6,31.449a8.519,8.519,0,0,1,1.182-2.408L8,28.754c0.071-.091.13-0.153,0.2-0.23L8.385,28.3l0.235-.246,0.8-.827a10.135,10.135,0,0,0,1.272-1.567,2.547,2.547,0,0,0,.437-1.388,1.249,1.249,0,0,0-.035-0.311,1.64,1.64,0,0,0-.068-0.266l-0.014-.063L11,23.6l-0.025-.052-0.1-.212-0.1-.207-0.011-.023L10.761,23.1l-0.053-.093c-0.284-.494-0.578-0.985-0.817-1.508a5.364,5.364,0,0,1-.4-1.274,8.007,8.007,0,0,1,.327-4.114A11.247,11.247,0,0,1,12,11.842a7.911,7.911,0,0,0-1.064.351,9.957,9.957,0,0,0-1.62.843l-0.377.253L8.524,13.6,8.162,13.9l-0.373.322c-0.994.883-1.921,1.938-2.909,2.855a15.1,15.1,0,0,1-1.509,1.257,9.719,9.719,0,0,1-1.513.919,5.881,5.881,0,0,1-1.431.48c-0.124.024-.243,0.042-0.359,0.056C-0.288,24.027.609,30.405,6.412,37.7,6.326,37.24,6.254,36.755,6.2,36.241a13.687,13.687,0,0,1-.047-2.3A10.492,10.492,0,0,1,6.6,31.449Z" transform="translate(0 0)"/><path class="cls-1" d="M35.337,34.129a10.119,10.119,0,0,0-.583-2.045,6.553,6.553,0,0,0-1.045-1.752l-0.145-.177c-0.052-.062-0.131-0.137-0.2-0.2l-0.2-.206-0.007-.007,0.022,0.023-0.013-.016-0.026-.024-0.051-.048-0.1-.1-0.855-.789a10.562,10.562,0,0,1-1.625-1.893,4.785,4.785,0,0,1-.567-1.164,11.463,11.463,0,0,0-.031,2.345,4.338,4.338,0,0,1-1.223,3.445,2.243,2.243,0,0,1-2.139.752A11.777,11.777,0,0,1,22.27,30.2a0.126,0.126,0,0,0,0-.055,1.515,1.515,0,0,1,.454-1.254c3.064-1.437,2.984-3.12,2.984-3.12a12.366,12.366,0,0,0-3.9-.874,4.625,4.625,0,0,0-.727,0,12.364,12.364,0,0,0-3.9.874s-0.08,1.682,2.984,3.12a1.513,1.513,0,0,1,.454,1.254,0.131,0.131,0,0,0,0,.055,11.778,11.778,0,0,1-4.277,2.073A2.243,2.243,0,0,1,14.2,31.52a4.34,4.34,0,0,1-1.223-3.445,11.463,11.463,0,0,0-.031-2.345,4.776,4.776,0,0,1-.567,1.164,10.56,10.56,0,0,1-1.625,1.893l-0.855.789-0.1.1-0.052.048-0.026.024L9.7,29.756l0.022-.023-0.007.007-0.2.209c-0.064.068-.144,0.143-0.2,0.2l-0.145.177a6.553,6.553,0,0,0-1.045,1.752,10.119,10.119,0,0,0-.583,2.045,16.151,16.151,0,0,0-.22,2.066c-0.011.335-.015,0.663-0.013,0.982s0.006,0.639.016,0.93c0.011,0.267.027,0.52,0.046,0.764q0.229,0.267.467,0.536a31.637,31.637,0,0,0,6.461,5.58,6.439,6.439,0,0,1-.145-0.857,11.919,11.919,0,0,1,.287-3.9,17.987,17.987,0,0,1,.713-2.023,7.82,7.82,0,0,0,.911,4.971A11.062,11.062,0,0,1,17.3,46.412c0.017,0.086.029,0.171,0.038,0.251A18.015,18.015,0,0,0,21.446,48a18.018,18.018,0,0,0,4.1-1.339c0.01-.086.021-0.165,0.038-0.251a11.054,11.054,0,0,1,1.228-3.237,7.819,7.819,0,0,0,.911-4.971,18.029,18.029,0,0,1,.713,2.023,11.924,11.924,0,0,1,.287,3.9,6.426,6.426,0,0,1-.145.857,31.63,31.63,0,0,0,6.462-5.58q0.238-.269.467-0.536c0.02-.243.035-0.5,0.046-0.764,0.011-.291.018-0.611,0.017-0.93s0-.646-0.013-0.982A16.17,16.17,0,0,0,35.337,34.129ZM24.606,36.035a3.131,3.131,0,0,1-.648-1.357,6.338,6.338,0,0,1-2.513,3,6.344,6.344,0,0,1-2.513-3,3.131,3.131,0,0,1-.648,1.357,7.288,7.288,0,0,1-.932-2.865,23.92,23.92,0,0,1,4.093-1.987,23.92,23.92,0,0,1,4.094,1.989A7.285,7.285,0,0,1,24.606,36.035Z" transform="translate(0 0)"/><path class="cls-1" d="M66.218,38.315H80.965l-0.7,6.115H58.23L63.22,3.3h7.261Z" transform="translate(0 0)"/><path class="cls-1" d="M108.683,22.012a8.216,8.216,0,0,1-.771,3.583,7.251,7.251,0,0,1-2.76,2.9,19.59,19.59,0,0,1-5.4,2.2,55.747,55.747,0,0,1-8.668,1.465v0.37q0,6.882,5.744,6.882a8.944,8.944,0,0,0,2.19-.241,9.1,9.1,0,0,0,1.665-.584,7.635,7.635,0,0,0,1.291-.768c0.383-.284.734-0.539,1.063-0.768a8.033,8.033,0,0,1,.967-0.581,2.247,2.247,0,0,1,1.035-.243,1.582,1.582,0,0,1,.675.157,1.426,1.426,0,0,1,.561.468l1.761,2.161a29.453,29.453,0,0,1-2.918,2.621A16.092,16.092,0,0,1,102.2,43.46a13.705,13.705,0,0,1-3.139,1.051,17.643,17.643,0,0,1-3.622.343,11.587,11.587,0,0,1-4.567-.866,10.061,10.061,0,0,1-3.494-2.448,11.038,11.038,0,0,1-2.259-3.812,14.71,14.71,0,0,1-.8-4.99,20.8,20.8,0,0,1,.493-4.523A20.314,20.314,0,0,1,86.234,24a17.855,17.855,0,0,1,2.272-3.669,15.421,15.421,0,0,1,3.038-2.9,13.95,13.95,0,0,1,3.722-1.907,13.659,13.659,0,0,1,4.361-.682,11.017,11.017,0,0,1,3.965.655,8.9,8.9,0,0,1,2.833,1.692,6.918,6.918,0,0,1,1.692,2.318A6.2,6.2,0,0,1,108.683,22.012Zm-9.446-2.276a5.912,5.912,0,0,0-2.61.584,7.223,7.223,0,0,0-2.171,1.634,10.651,10.651,0,0,0-1.683,2.52,15.743,15.743,0,0,0-1.132,3.2,47.559,47.559,0,0,0,5.589-1.051,13.59,13.59,0,0,0,3.28-1.252,3.743,3.743,0,0,0,1.542-1.451,3.692,3.692,0,0,0,.378-1.648,2.332,2.332,0,0,0-.175-0.883,2.23,2.23,0,0,0-.561-0.806,3.083,3.083,0,0,0-.981-0.6A3.975,3.975,0,0,0,99.237,19.737Z" transform="translate(0 0)"/><path class="cls-1" d="M121.745,44.852a11.793,11.793,0,0,1-4.416-.806,9.633,9.633,0,0,1-3.5-2.375,11.091,11.091,0,0,1-2.308-3.84,14.943,14.943,0,0,1-.844-5.206,20.466,20.466,0,0,1,1.191-7.056,18,18,0,0,1,3.253-5.66,15.249,15.249,0,0,1,4.808-3.755,12.98,12.98,0,0,1,5.857-1.366,11.815,11.815,0,0,1,4.412.806,9.879,9.879,0,0,1,3.521,2.375,11.091,11.091,0,0,1,2.327,3.84,15.061,15.061,0,0,1,.839,5.206,20.06,20.06,0,0,1-1.207,7.011,18.51,18.51,0,0,1-3.267,5.66A15.338,15.338,0,0,1,127.6,43.47,12.843,12.843,0,0,1,121.745,44.852Zm0.616-5.4a5.231,5.231,0,0,0,3.139-1.008,8.692,8.692,0,0,0,2.4-2.7,14.263,14.263,0,0,0,1.528-3.94,20.619,20.619,0,0,0,.529-4.722,9.146,9.146,0,0,0-1.191-5.233,4.122,4.122,0,0,0-3.6-1.678,5.294,5.294,0,0,0-3.139,1,8.38,8.38,0,0,0-2.386,2.7,14.765,14.765,0,0,0-1.514,3.953,20.745,20.745,0,0,0-.529,4.749,9.154,9.154,0,0,0,1.177,5.22A4.1,4.1,0,0,0,122.36,39.45Z" transform="translate(0 0)"/><path class="cls-1" d="M139.509,44.426l3.449-29.212h3.531a2.45,2.45,0,0,1,1.7.541,2.22,2.22,0,0,1,.6,1.734l-0.2,3.785a15.83,15.83,0,0,1,4.849-4.879,10.5,10.5,0,0,1,5.493-1.607,7.01,7.01,0,0,1,2.9.584,6.092,6.092,0,0,1,2.23,1.706,8.035,8.035,0,0,1,1.428,2.759,12.758,12.758,0,0,1,.5,3.769c0,0.361-.018.727-0.045,1.095s-0.059.755-.1,1.153l-2.158,18.573H156.77q0.561-4.806.954-8.15c0.26-2.227.479-4.081,0.643-5.56s0.3-2.639.392-3.483,0.164-1.484.21-1.921,0.077-.725.087-0.866,0.014-.262.014-0.357a4.36,4.36,0,0,0-.671-2.715,2.537,2.537,0,0,0-2.1-.841,4.9,4.9,0,0,0-2.381.682,9.1,9.1,0,0,0-2.358,1.935,14.86,14.86,0,0,0-2.043,3.014A19.43,19.43,0,0,0,148,30.09l-1.569,14.335h-6.921Z" transform="translate(0 0)"/></svg>